<svg width="20" height="16" viewBox="0 0 20 16" fill="none" xmlns="http://www.w3.org/2000/svg">
<path d="M17.5585 0.389648H2.44569C1.09663 0.389648 0 1.48628 0 2.83533V13.1643C0 14.5134 1.09663 15.61 2.44569 15.61H17.5543C18.9034 15.61 20 14.5134 20 13.1643V2.83947C20.0041 1.49041 18.9075 0.389648 17.5585 0.389648ZM18.8868 13.1643C18.8868 13.8968 18.2909 14.4927 17.5585 14.4927H2.44569C1.71322 14.4927 1.11732 13.8968 1.11732 13.1643V2.83947C1.11732 2.10701 1.71322 1.51111 2.44569 1.51111H17.5543C18.2868 1.51111 18.8827 2.10701 18.8827 2.83947V13.1643H18.8868Z" fill="#8EE901"/>
<path d="M12.6115 7.87145L17.5029 3.48494C17.7305 3.27803 17.7512 2.92628 17.5443 2.69454C17.3374 2.46694 16.9856 2.44624 16.7539 2.65316L10.0086 8.70737L8.69266 7.53211C8.68852 7.52797 8.68438 7.52384 8.68438 7.5197C8.65541 7.49073 8.62645 7.4659 8.59334 7.44107L3.23849 2.64902C3.00675 2.44211 2.655 2.4628 2.44809 2.69454C2.24118 2.92628 2.26187 3.27803 2.49361 3.48494L7.44292 7.90869L2.5143 12.5228C2.29084 12.7339 2.27842 13.0856 2.48947 13.3132C2.6012 13.4291 2.75018 13.4911 2.89916 13.4911C3.03572 13.4911 3.17228 13.4415 3.27987 13.3422L8.28297 8.66185L9.64031 9.87434C9.7479 9.96952 9.88033 10.015 10.0127 10.015C10.1452 10.015 10.2817 9.96538 10.3852 9.87021L11.7798 8.62046L16.7539 13.3463C16.8615 13.4498 17.0022 13.4994 17.1388 13.4994C17.2877 13.4994 17.4326 13.4415 17.5443 13.3256C17.7554 13.1022 17.7471 12.7463 17.5236 12.5352L12.6115 7.87145Z" fill="#8EE901"/>
</svg>
